<svg xmlns="http://www.w3.org/2000/svg" width="64" height="64" viewBox="0 0 64 64"><defs><style>.a,.b{fill:#565656;}.a{fill-rule:evenodd;}.b{stroke:#565656;}.c{fill:#04c648;stroke:#5ac259;}</style></defs><path class="a" d="M98.476,63.472c2.221,2.149,4.394,4.039,4.394,7.4s-2.174,5.24-4.394,7.4c.861,3.042,1.808,5.775.028,8.728-1.695,2.812-4.485,3.352-7.424,4.083-.742,2.968-1.285,5.781-4.148,7.465-2.934,1.727-5.656.788-8.664-.069-2.15,2.222-4.039,4.395-7.4,4.395s-5.248-2.173-7.4-4.394c-2.938.836-5.637,1.779-8.526.148-2.9-1.478-3.557-4.671-4.286-7.545-3.12-.787-6.017-1.354-7.646-4.477-1.485-2.846-.564-5.475.249-8.334-2.221-2.155-4.394-4.032-4.394-7.4s2.175-5.24,4.393-7.4c-.807-2.832-1.717-5.457-.277-8.284,1.6-3.15,4.55-3.735,7.674-4.527.737-2.944,1.274-5.757,4.105-7.439,2.966-1.763,5.662-.825,8.707.043,2.15-2.222,4.039-4.394,7.4-4.394s5.24,2.174,7.4,4.394c2.773-.737,6.16-1.623,8.789.01,2.754,1.71,3.294,4.476,4.022,7.386,3.046.766,5.96,1.354,7.589,4.371,1.553,2.875.633,5.537-.193,8.442ZM76.933,93.506c2.139.572,5.708,2.148,7.714,1.214,1.634-.911,2.323-5.516,2.793-7.28,1.91-.51,6.282-1.149,7.259-2.748,1.007-1.647-.677-5.83-1.194-7.761,1.406-1.4,4.909-4.162,4.909-6.062s-3.506-4.657-4.909-6.061c.511-1.915,2.109-5.963,1.268-7.629-.871-1.725-5.413-2.366-7.334-2.88-.488-1.82-1.183-6.279-2.71-7.236-1.671-1.046-5.846.65-7.8,1.172-1.4-1.4-4.163-4.91-6.063-4.91s-4.658,3.5-6.062,4.91C62.855,47.713,58.692,46,57.02,47.06c-1.578,1-2.21,5.331-2.719,7.241-1.935.517-6.561,1.158-7.375,2.966-.753,1.674.8,5.636,1.309,7.541-1.4,1.4-4.909,4.171-4.909,6.062s3.5,4.659,4.909,6.062c-.518,1.936-2.121,5.942-1.263,7.639S52.4,86.933,54.3,87.439c.531,1.99,1.066,6.248,2.789,7.282,1.664.945,5.788-.7,7.719-1.216,1.412,1.41,4.147,4.908,6.061,4.908,1.89,0,4.664-3.507,6.063-4.908Z" transform="translate(-38.87 -38.87)"/><g transform="translate(15.001 16)"><path class="b" d="M51.665,78.329A16.665,16.665,0,1,0,35,61.665,16.665,16.665,0,0,0,51.665,78.329Zm0-31.031A14.366,14.366,0,1,1,37.3,61.665h0A14.382,14.382,0,0,1,51.665,47.3Z" transform="translate(-35 -45)"/><path class="c" d="M46.442,70.112l6.06,4.734a1.179,1.179,0,0,0,.867.232,1.15,1.15,0,0,0,.77-.461l10.03-13.792a1.149,1.149,0,1,0-1.86-1.352L52.98,72.3l-5.123-4a1.149,1.149,0,1,0-1.415,1.811Z" transform="translate(-39.679 -50.45)"/></g></svg>